HIERARCHY
ROOT Hips
{
	OFFSET -339.306915 540.749023 89.171944
	CHANNELS 6 Xposition Yposition Zposition Zrotation Yrotation Xrotation
	JOINT Spine
	{
		OFFSET 0.000000 2.080078 8.814247
		CHANNELS 6 Xposition Yposition Zposition Zrotation Yrotation Xrotation
		JOINT Spine1
		{
			OFFSET 0.000000 0.000000 8.844139
			CHANNELS 6 Xposition Yposition Zposition Zrotation Yrotation Xrotation
			JOINT Spine2
			{
				OFFSET 0.000000 0.000000 11.682266
				CHANNELS 6 Xposition Yposition Zposition Zrotation Yrotation Xrotation
				JOINT Spine3
				{
					OFFSET 0.000000 0.000000 11.746696
					CHANNELS 6 Xposition Yposition Zposition Zrotation Yrotation Xrotation
					JOINT Neck
					{
						OFFSET 0.000000 0.000000 17.658264
						CHANNELS 6 Xposition Yposition Zposition Zrotation Yrotation Xrotation
						JOINT Neck1
						{
							OFFSET 0.000000 0.000000 5.101517
							CHANNELS 6 Xposition Yposition Zposition Zrotation Yrotation Xrotation
							JOINT Head
							{
								OFFSET 0.000000 0.000000 5.101517
								CHANNELS 6 Xposition Yposition Zposition Zrotation Yrotation Xrotation
								JOINT HeadEnd
								{
									OFFSET 0.000000 0.000000 11.655090
									CHANNELS 6 Xposition Yposition Zposition Zrotation Yrotation Xrotation
									End Site
									{
										OFFSET 0.000000 0.000000 0.100006
									}
								}
							}
						}
					}
					JOINT RightShoulder
					{
						OFFSET -2.625397 0.000000 11.175217
						CHANNELS 6 Xposition Yposition Zposition Zrotation Yrotation Xrotation
						JOINT RightArm
						{
							OFFSET 0.000000 0.000000 10.434708
							CHANNELS 6 Xposition Yposition Zposition Zrotation Yrotation Xrotation
							JOINT RightForeArm
							{
								OFFSET 0.000000 0.000000 29.628418
								CHANNELS 6 Xposition Yposition Zposition Zrotation Yrotation Xrotation
								JOINT RightHand
								{
									OFFSET 0.000000 0.000000 22.857605
									CHANNELS 6 Xposition Yposition Zposition Zrotation Yrotation Xrotation
									JOINT RightHandThumb1
									{
										OFFSET -2.867310 -2.944275 3.959564
										CHANNELS 6 Xposition Yposition Zposition Zrotation Yrotation Xrotation
										JOINT RightHandThumb2
										{
											OFFSET 0.000000 0.000000 3.350403
											CHANNELS 6 Xposition Yposition Zposition Zrotation Yrotation Xrotation
											JOINT RightHandThumb3
											{
												OFFSET 0.000000 0.000000 3.756516
												CHANNELS 6 Xposition Yposition Zposition Zrotation Yrotation Xrotation
												JOINT RightHandThumb4
												{
													OFFSET 0.000000 0.000000 3.147339
													CHANNELS 6 Xposition Yposition Zposition Zrotation Yrotation Xrotation
													End Site
													{
														OFFSET 0.000000 0.000000 0.100006
													}
												}
											}
										}
									}
									JOINT RightHandIndex1
									{
										OFFSET -0.086761 -2.345276 10.030899
										CHANNELS 6 Xposition Yposition Zposition Zrotation Yrotation Xrotation
										JOINT RightHandIndex2
										{
											OFFSET 0.000000 0.000000 4.061096
											CHANNELS 6 Xposition Yposition Zposition Zrotation Yrotation Xrotation
											JOINT RightHandIndex3
											{
												OFFSET 0.000000 0.000000 3.248871
												CHANNELS 6 Xposition Yposition Zposition Zrotation Yrotation Xrotation
												JOINT RightHandIndex4
												{
													OFFSET 0.000000 0.000000 2.639709
													CHANNELS 6 Xposition Yposition Zposition Zrotation Yrotation Xrotation
													End Site
													{
														OFFSET 0.000000 0.000000 0.100006
													}
												}
											}
										}
									}
									JOINT RightHandMiddle1
									{
										OFFSET 0.104095 -0.006775 9.502945
										CHANNELS 6 Xposition Yposition Zposition Zrotation Yrotation Xrotation
										JOINT RightHandMiddle2
										{
											OFFSET 0.000000 0.000000 4.568726
											CHANNELS 6 Xposition Yposition Zposition Zrotation Yrotation Xrotation
											JOINT RightHandMiddle3
											{
												OFFSET 0.000000 0.000000 3.654984
												CHANNELS 6 Xposition Yposition Zposition Zrotation Yrotation Xrotation
												JOINT RightHandMiddle4
												{
													OFFSET 0.000000 0.000000 2.741241
													CHANNELS 6 Xposition Yposition Zposition Zrotation Yrotation Xrotation
													End Site
													{
														OFFSET 0.000000 0.000000 0.100006
													}
												}
											}
										}
									}
									JOINT RightHandRing1
									{
										OFFSET 0.086761 2.267456 8.921707
										CHANNELS 6 Xposition Yposition Zposition Zrotation Yrotation Xrotation
										JOINT RightHandRing2
										{
											OFFSET 0.000000 0.000000 4.061096
											CHANNELS 6 Xposition Yposition Zposition Zrotation Yrotation Xrotation
											JOINT RightHandRing3
											{
												OFFSET 0.000000 0.000000 3.654984
												CHANNELS 6 Xposition Yposition Zposition Zrotation Yrotation Xrotation
												JOINT RightHandRing4
												{
													OFFSET 0.000000 0.000000 2.741241
													CHANNELS 6 Xposition Yposition Zposition Zrotation Yrotation Xrotation
													End Site
													{
														OFFSET 0.000000 0.000000 0.100006
													}
												}
											}
										}
									}
									JOINT RightHandPinky1
									{
										OFFSET -0.173492 4.467224 7.976990
										CHANNELS 6 Xposition Yposition Zposition Zrotation Yrotation Xrotation
										JOINT RightHandPinky2
										{
											OFFSET 0.000000 0.000000 3.350403
											CHANNELS 6 Xposition Yposition Zposition Zrotation Yrotation Xrotation
											JOINT RightHandPinky3
											{
												OFFSET 0.000000 0.000000 2.842758
												CHANNELS 6 Xposition Yposition Zposition Zrotation Yrotation Xrotation
												JOINT RightHandPinky4
												{
													OFFSET 0.000000 0.000000 2.639709
													CHANNELS 6 Xposition Yposition Zposition Zrotation Yrotation Xrotation
													End Site
													{
														OFFSET 0.000000 0.000000 0.100006
													}
												}
											}
										}
									}
									JOINT RightForeArmEnd
									{
										OFFSET 0.000000 0.000000 0.000000
										CHANNELS 6 Xposition Yposition Zposition Zrotation Yrotation Xrotation
										End Site
										{
											OFFSET 0.000000 0.000000 0.100006
										}
									}
								}
								JOINT RightArmEnd
								{
									OFFSET 0.000000 0.000000 0.000000
									CHANNELS 6 Xposition Yposition Zposition Zrotation Yrotation Xrotation
									End Site
									{
										OFFSET 0.000000 0.000000 0.100006
									}
								}
							}
						}
					}
					JOINT LeftShoulder
					{
						OFFSET 2.625397 0.000000 11.175217
						CHANNELS 6 Xposition Yposition Zposition Zrotation Yrotation Xrotation
						JOINT LeftArm
						{
							OFFSET 0.000000 0.000000 10.813629
							CHANNELS 6 Xposition Yposition Zposition Zrotation Yrotation Xrotation
							JOINT LeftForeArm
							{
								OFFSET 0.000000 0.000000 28.724777
								CHANNELS 6 Xposition Yposition Zposition Zrotation Yrotation Xrotation
								JOINT LeftHand
								{
									OFFSET 0.644379 0.328857 25.716171
									CHANNELS 6 Xposition Yposition Zposition Zrotation Yrotation Xrotation
									JOINT LeftHandThumb1
									{
										OFFSET 2.867310 -2.944275 3.959564
										CHANNELS 6 Xposition Yposition Zposition Zrotation Yrotation Xrotation
										JOINT LeftHandThumb2
										{
											OFFSET 0.000000 0.000000 3.350403
											CHANNELS 6 Xposition Yposition Zposition Zrotation Yrotation Xrotation
											JOINT LeftHandThumb3
											{
												OFFSET 0.000000 0.000000 3.756516
												CHANNELS 6 Xposition Yposition Zposition Zrotation Yrotation Xrotation
												JOINT LeftHandThumb4
												{
													OFFSET 0.000000 0.000000 3.100006
													CHANNELS 6 Xposition Yposition Zposition Zrotation Yrotation Xrotation
													End Site
													{
														OFFSET 0.000000 0.000000 0.100006
													}
												}
											}
										}
									}
									JOINT LeftHandIndex1
									{
										OFFSET 0.086761 -2.345276 10.030899
										CHANNELS 6 Xposition Yposition Zposition Zrotation Yrotation Xrotation
										JOINT LeftHandIndex2
										{
											OFFSET 0.000000 0.000000 4.061096
											CHANNELS 6 Xposition Yposition Zposition Zrotation Yrotation Xrotation
											JOINT LeftHandIndex3
											{
												OFFSET 0.000000 0.000000 3.248871
												CHANNELS 6 Xposition Yposition Zposition Zrotation Yrotation Xrotation
												JOINT LeftHandIndex4
												{
													OFFSET 0.000000 0.000000 2.639709
													CHANNELS 6 Xposition Yposition Zposition Zrotation Yrotation Xrotation
													End Site
													{
														OFFSET 0.000000 0.000000 0.100006
													}
												}
											}
										}
									}
									JOINT LeftHandMiddle1
									{
										OFFSET -0.104095 -0.006775 9.502945
										CHANNELS 6 Xposition Yposition Zposition Zrotation Yrotation Xrotation
										JOINT LeftHandMiddle2
										{
											OFFSET 0.000000 0.000000 4.568726
											CHANNELS 6 Xposition Yposition Zposition Zrotation Yrotation Xrotation
											JOINT LeftHandMiddle3
											{
												OFFSET 0.000000 0.000000 3.654984
												CHANNELS 6 Xposition Yposition Zposition Zrotation Yrotation Xrotation
												JOINT LeftHandMiddle4
												{
													OFFSET 0.000000 0.000000 2.741241
													CHANNELS 6 Xposition Yposition Zposition Zrotation Yrotation Xrotation
													End Site
													{
														OFFSET 0.000000 0.000000 0.100006
													}
												}
											}
										}
									}
									JOINT LeftHandRing1
									{
										OFFSET -0.086761 2.267456 8.921707
										CHANNELS 6 Xposition Yposition Zposition Zrotation Yrotation Xrotation
										JOINT LeftHandRing2
										{
											OFFSET 0.000000 0.000000 4.061096
											CHANNELS 6 Xposition Yposition Zposition Zrotation Yrotation Xrotation
											JOINT LeftHandRing3
											{
												OFFSET 0.000000 0.000000 3.654984
												CHANNELS 6 Xposition Yposition Zposition Zrotation Yrotation Xrotation
												JOINT LeftHandRing4
												{
													OFFSET 0.000000 0.000000 2.741241
													CHANNELS 6 Xposition Yposition Zposition Zrotation Yrotation Xrotation
													End Site
													{
														OFFSET 0.000000 0.000000 0.100006
													}
												}
											}
										}
									}
									JOINT LeftHandPinky1
									{
										OFFSET 0.173492 4.467224 7.976990
										CHANNELS 6 Xposition Yposition Zposition Zrotation Yrotation Xrotation
										JOINT LeftHandPinky2
										{
											OFFSET 0.000000 0.000000 3.350403
											CHANNELS 6 Xposition Yposition Zposition Zrotation Yrotation Xrotation
											JOINT LeftHandPinky3
											{
												OFFSET 0.000000 0.000000 2.842758
												CHANNELS 6 Xposition Yposition Zposition Zrotation Yrotation Xrotation
												JOINT LeftHandPinky4
												{
													OFFSET 0.000000 0.000000 2.639709
													CHANNELS 6 Xposition Yposition Zposition Zrotation Yrotation Xrotation
													End Site
													{
														OFFSET 0.000000 0.000000 0.100006
													}
												}
											}
										}
									}
									JOINT LeftForeArmEnd
									{
										OFFSET 0.000000 0.000000 0.000000
										CHANNELS 6 Xposition Yposition Zposition Zrotation Yrotation Xrotation
										End Site
										{
											OFFSET 0.000000 0.000000 0.100006
										}
									}
								}
								JOINT LeftArmEnd
								{
									OFFSET 0.000000 0.000000 0.000000
									CHANNELS 6 Xposition Yposition Zposition Zrotation Yrotation Xrotation
									End Site
									{
										OFFSET 0.000000 0.000000 0.100006
									}
								}
							}
						}
					}
				}
			}
		}
	}
	JOINT RightUpLeg
	{
		OFFSET -11.289948 0.000000 0.000000
		CHANNELS 6 Xposition Yposition Zposition Zrotation Yrotation Xrotation
		JOINT RightLeg
		{
			OFFSET 0.000000 0.000000 -38.200329
			CHANNELS 6 Xposition Yposition Zposition Zrotation Yrotation Xrotation
			JOINT RightFoot
			{
				OFFSET 0.000000 0.000000 -39.900856
				CHANNELS 6 Xposition Yposition Zposition Zrotation Yrotation Xrotation
				JOINT RightToeBase
				{
					OFFSET 0.000000 -15.261658 0.000001
					CHANNELS 6 Xposition Yposition Zposition Zrotation Yrotation Xrotation
					JOINT RightToeBaseEnd
					{
						OFFSET 0.000000 -7.370728 0.000001
						CHANNELS 6 Xposition Yposition Zposition Zrotation Yrotation Xrotation
						End Site
						{
							OFFSET 0.000000 0.000000 0.100000
						}
					}
				}
				JOINT RightLegEnd
				{
					OFFSET 0.000000 0.000000 0.000000
					CHANNELS 6 Xposition Yposition Zposition Zrotation Yrotation Xrotation
					End Site
					{
						OFFSET 0.000000 0.000000 0.100000
					}
				}
			}
			JOINT RightUpLegEnd
			{
				OFFSET 0.000000 0.000000 0.000000
				CHANNELS 6 Xposition Yposition Zposition Zrotation Yrotation Xrotation
				End Site
				{
					OFFSET 0.000000 0.000000 0.099998
				}
			}
		}
	}
	JOINT LeftUpLeg
	{
		OFFSET 11.315674 0.000000 0.000000
		CHANNELS 6 Xposition Yposition Zposition Zrotation Yrotation Xrotation
		JOINT LeftLeg
		{
			OFFSET 0.000000 0.000000 -38.200329
			CHANNELS 6 Xposition Yposition Zposition Zrotation Yrotation Xrotation
			JOINT LeftFoot
			{
				OFFSET 0.000000 0.000000 -39.900856
				CHANNELS 6 Xposition Yposition Zposition Zrotation Yrotation Xrotation
				JOINT LeftToeBase
				{
					OFFSET 0.000000 -15.261658 0.000001
					CHANNELS 6 Xposition Yposition Zposition Zrotation Yrotation Xrotation
					JOINT LeftToeBaseEnd
					{
						OFFSET 0.000000 -7.539978 0.000001
						CHANNELS 6 Xposition Yposition Zposition Zrotation Yrotation Xrotation
						End Site
						{
							OFFSET 0.000000 0.000000 0.100000
						}
					}
				}
				JOINT LeftLegEnd
				{
					OFFSET 0.000000 0.000000 0.000000
					CHANNELS 6 Xposition Yposition Zposition Zrotation Yrotation Xrotation
					End Site
					{
						OFFSET 0.000000 0.000000 0.100000
					}
				}
			}
			JOINT LeftUpLegEnd
			{
				OFFSET 0.000000 0.000000 0.000000
				CHANNELS 6 Xposition Yposition Zposition Zrotation Yrotation Xrotation
				End Site
				{
					OFFSET 0.000000 0.000000 0.099998
				}
			}
		}
	}
}
MOTION
Frames: 2
Frame Time: 0.016667
40.649994 -67.297791 84.298126 -15.820040 -0.425779 -16.439417 0.000006 2.080093 8.814240 0.839285 1.405036 9.702459 0.000004 0.000028 8.844143 0.455614 -1.082047 4.074582 -0.000010 0.000006 11.682268 8.590153 -0.026103 10.089087 -0.000020 -0.000007 11.746719 4.035088 -1.746612 6.761777 0.000013 0.000021 17.658253 6.252913 6.734217 -9.357875 -0.000008 -0.000023 5.101520 3.097442 -0.170482 -13.635794 -0.000004 0.000007 5.101544 0.867133 -1.374325 -14.846905 0.000004 0.000008 11.655077 -0.000001 -0.000000 0.000000 -2.625404 -0.000023 11.175181 12.959032 -77.851814 0.085328 -0.000023 0.000012 10.434715 20.105545 -34.248317 -6.824944 -0.000004 -0.000015 29.628393 17.353723 -0.793716 77.700164 -0.000061 -0.000023 22.857580 -21.625656 53.700983 3.775622 -2.867317 -2.944260 3.959534 33.344123 -11.313320 61.578356 -0.000002 0.000023 3.350405 0.000002 -0.000003 0.044256 -0.000014 0.000016 3.756511 -0.000003 0.000003 -0.020845 0.000016 0.000013 3.147351 -0.000002 -0.000000 0.000001 -0.086769 -2.345284 10.030884 15.391638 30.898355 40.762825 -0.000001 -0.000011 4.061094 -0.570105 0.000038 -0.000131 -0.000015 0.000023 3.248864 -0.065590 0.000007 -0.011935 -0.000003 0.000000 2.639711 -0.000000 -0.000000 0.000000 0.104103 -0.006775 9.502914 10.809357 33.172125 26.905317 0.000006 -0.000019 4.568742 -0.730051 0.000322 -0.000162 0.000012 -0.000009 3.654988 -0.219010 -0.000000 0.150013 -0.000002 0.000006 2.741250 0.000000 -0.000000 -0.000002 0.086769 2.267452 8.921707 1.043766 32.605486 8.795113 0.000002 0.000001 4.061114 1.199524 -0.000007 -0.000157 -0.000014 -0.000005 3.654984 0.154222 -0.000003 0.004993 0.000029 -0.000001 2.741259 0.000000 0.000000 0.000000 -0.173492 4.467226 7.976967 -9.274696 26.022700 -8.586134 0.000013 -0.000027 3.350426 2.132914 0.044205 0.001753 0.000010 0.000030 2.842779 0.176150 -0.023666 0.012366 0.000000 -0.000006 2.639713 0.000001 0.000000 -0.000001 -0.000008 -0.000005 -0.000033 0.000000 -0.000001 0.000000 0.000009 -0.000004 0.000015 0.000001 -0.000000 0.000000 2.625416 -0.000014 11.175200 -10.499415 79.199848 -0.763370 0.000000 -0.000010 10.813625 -24.748359 26.973706 -6.883720 0.000017 0.000021 28.724766 -16.059187 -0.875016 89.614882 0.644363 0.328819 25.716145 45.888192 -51.979136 -7.885214 2.867340 -2.944275 3.959549 -32.691427 12.809242 58.820455 0.000009 -0.000021 3.350414 3.067646 -2.763487 -5.974089 0.000004 0.000031 3.756519 2.099439 -1.953144 -4.132621 -0.000011 0.000002 3.100005 0.000000 0.000001 0.000003 0.086739 -2.345257 10.030853 4.121374 -28.940717 15.902309 0.000000 -0.000027 4.061090 -0.743436 0.028677 -0.000281 0.000011 0.000021 3.248858 -0.230000 -0.016128 0.011727 -0.000038 -0.000007 2.639708 0.000001 0.000001 -0.000002 -0.104084 -0.006794 9.502899 -1.248606 -27.452822 11.441119 -0.000013 0.000009 4.568748 -0.785083 0.000188 0.000166 0.000011 0.000001 3.655010 -0.243525 -0.000057 -0.011522 -0.000003 0.000000 2.741266 0.000001 0.000001 -0.000001 -0.086761 2.267471 8.921700 -10.189909 -26.643605 6.548925 -0.000003 -0.000004 4.061081 1.138981 0.027955 0.000837 -0.000014 -0.000022 3.654973 0.302101 -0.015051 0.003422 0.000002 -0.000005 2.741233 0.000000 -0.000001 -0.000002 0.173485 4.467232 7.976990 -19.353476 -26.235238 1.254789 0.000011 0.000006 3.350408 2.238906 0.000273 0.000365 0.000005 -0.000024 2.842758 0.203949 0.000002 0.057885 0.000005 -0.000000 2.639735 0.000000 0.000000 -0.000001 0.000031 0.000008 -0.000010 0.000000 0.000000 0.000000 -0.000009 0.000009 0.000007 -0.000001 0.000003 -0.000001 -11.289940 -0.000041 -0.000010 -8.253059 21.574377 1.295001 0.000010 -0.000042 -38.200333 -0.346360 0.161424 24.988753 0.000021 0.000031 -39.900826 -30.997495 -3.177196 27.812807 0.000002 -15.261707 0.000004 -1.010206 3.292373 -19.235411 -0.000006 -7.370674 0.000004 0.000001 -0.000001 -0.000002 -0.000008 0.000087 -0.000003 -0.000004 -0.000001 -0.000001 -0.000015 -0.000003 0.000001 0.000001 0.000001 -0.000001 11.315617 0.000020 -0.000010 26.116562 -6.608248 2.366625 -0.000011 0.000058 -38.200340 -0.157810 0.120342 37.346416 0.000003 -0.000018 -39.900864 24.196423 7.218952 2.893836 0.000003 -15.261664 0.000027 -1.322705 -0.601655 -15.772618 -0.000008 -7.539987 0.000003 0.000001 0.000000 -0.000001 -0.000010 -0.000011 0.000005 0.000002 -0.000001 0.000001 -0.000002 0.000054 -0.000004 0.000001 -0.000000 0.000001 
41.215363 -67.473633 84.489861 -16.742498 -0.381566 -16.090843 0.000022 2.080052 8.814236 0.846443 1.480704 9.687489 -0.000012 -0.000027 8.844133 0.462684 -1.011058 4.123076 0.000016 -0.000002 11.682270 8.602413 0.034451 9.636141 0.000013 0.000005 11.746690 3.996758 -1.734055 6.604825 -0.000010 -0.000011 17.658298 6.307441 6.415592 -9.157758 0.000004 0.000025 5.101533 3.171574 -0.210333 -13.392533 -0.000009 0.000027 5.101554 0.883228 -1.330467 -15.066882 0.000001 -0.000003 11.655104 0.000000 0.000000 -0.000000 -2.625397 -0.000020 11.175222 12.563459 -77.655262 0.076916 -0.000015 -0.000023 10.434731 21.725245 -34.145840 -8.697012 -0.000042 -0.000053 29.628407 17.863494 -0.739814 77.257827 0.000000 -0.000023 22.857603 -20.429854 53.309486 5.205822 -2.867302 -2.944290 3.959549 33.272816 -11.458616 61.321712 0.000007 0.000000 3.350404 -0.293499 0.290497 -0.590540 0.000017 -0.000002 3.756523 -0.203522 0.202064 -0.409929 -0.000039 0.000010 3.147353 -0.000001 -0.000002 0.000001 -0.086731 -2.345276 10.030853 15.353085 30.769756 40.642388 -0.000013 -0.000029 4.061095 -0.568867 0.000026 -0.000131 -0.000007 -0.000026 3.248878 -0.064421 0.000009 -0.011925 -0.000005 0.000003 2.639699 -0.000000 -0.000001 -0.000001 0.104088 -0.006783 9.502960 10.706454 32.823837 26.667540 0.000009 -0.000004 4.568716 -0.728630 0.000371 -0.000164 -0.000001 0.000038 3.654978 -0.217378 0.000001 0.147117 0.000004 0.000001 2.741281 0.000000 -0.000001 -0.000000 0.086769 2.267447 8.921684 0.908092 31.878467 8.477130 0.000002 0.000004 4.061090 1.197435 0.034262 0.000561 0.000014 0.000003 3.654980 0.152623 -0.018115 0.004932 -0.000000 -0.000001 2.741299 0.000000 -0.000001 -0.000000 -0.173496 4.467203 7.976974 -9.350329 25.017100 -8.910607 0.000000 -0.000001 3.350420 2.132971 -0.000867 0.000072 -0.000001 -0.000020 2.842762 0.174851 0.000565 0.012569 0.000013 -0.000005 2.639691 0.000001 0.000000 -0.000000 0.000003 -0.000001 0.000011 0.000000 -0.000004 -0.000001 0.000007 0.000012 0.000012 -0.000002 0.000002 -0.000002 2.625401 0.000022 11.175250 -10.222887 79.042501 -0.722102 0.000008 -0.000027 10.813644 -27.479407 26.991924 -10.154134 0.000019 0.000010 28.724817 -16.819699 -0.872358 89.233061 0.644363 0.328827 25.716194 45.661925 -51.802709 -8.673517 2.867310 -2.944290 3.959595 -32.691406 12.809251 58.820421 0.000019 -0.000057 3.350414 3.067654 -2.763479 -5.974058 -0.000003 0.000015 3.756509 2.099442 -1.953170 -4.132616 -0.000007 -0.000009 3.100029 0.000002 0.000002 0.000001 0.086769 -2.345276 10.030899 4.040138 -29.488205 16.175155 -0.000002 0.000019 4.061091 -0.742658 0.000007 0.000085 -0.000019 0.000000 3.248894 -0.229248 -0.000004 0.011450 -0.000010 -0.000009 2.639715 0.000001 -0.000000 0.000002 -0.104103 -0.006773 9.502968 -1.323570 -27.847810 11.705445 -0.000006 0.000009 4.568727 -0.783409 0.000210 0.000163 0.000012 -0.000010 3.654997 -0.242091 -0.000015 -0.011313 0.000002 0.000006 2.741279 -0.000000 0.000001 -0.000001 -0.086754 2.267450 8.921696 -10.214292 -26.719191 6.769798 -0.000021 0.000016 4.061110 1.138201 -0.000025 0.000273 -0.000006 0.000015 3.654984 0.300277 0.000004 0.003434 -0.000037 -0.000001 2.741276 0.000000 -0.000000 -0.000001 0.173508 4.467249 7.976978 -19.281902 -25.993093 1.376285 -0.000013 0.000025 3.350391 2.236802 0.000572 0.000369 -0.000009 -0.000004 2.842744 0.202164 0.000004 0.056762 -0.000003 0.000004 2.639695 0.000000 -0.000001 -0.000001 -0.000000 -0.000005 0.000004 0.000000 -0.000000 0.000001 -0.000022 0.000019 0.000017 -0.000003 -0.000000 0.000000 -11.289968 -0.000015 -0.000006 -9.017591 21.041064 0.481612 0.000011 0.000029 -38.200306 -0.356419 0.166001 25.000929 0.000019 0.000067 -39.900848 -30.978183 -3.267057 27.814120 0.000006 -15.261644 -0.000013 -0.935791 3.291679 -19.090958 -0.000008 -7.370649 0.000003 -0.000003 -0.000003 -0.000001 -0.000004 0.000071 -0.000004 -0.000002 0.000001 -0.000001 -0.000004 0.000012 -0.000009 -0.000002 -0.000001 -0.000000 11.315630 -0.000027 0.000006 26.690790 -6.236505 2.781580 -0.000016 0.000078 -38.200317 -0.171161 0.126276 36.363835 -0.000031 0.000006 -39.900860 24.749313 6.993551 3.077321 -0.000011 -15.261625 -0.000009 -1.281921 -0.607553 -15.881761 -0.000012 -7.539912 0.000003 -0.000001 0.000000 -0.000000 0.000001 0.000009 0.000000 -0.000001 -0.000001 0.000001 -0.000020 -0.000003 -0.000005 0.000001 0.000000 -0.000000 
